<svg width="19" height="25" viewBox="0 0 19 25" fill="none" xmlns="http://www.w3.org/2000/svg">
<path d="M2 11.2114C4.51582 8.12187 7.19964 5.19151 9.96736 2.32962C10.0092 2.2864 10.1853 2.08541 10.295 2.01478C10.396 1.94971 10.2955 2.12005 10.2914 2.12894C9.98032 2.80987 9.73951 3.51782 9.52182 4.23431C9.13437 5.50954 8.77454 6.79584 8.4294 8.08335C8.16968 9.05222 7.87449 10.0558 7.88379 11.0696C7.88442 11.138 7.88113 11.6952 8.10895 11.531C8.43307 11.2975 8.7341 10.8656 8.9905 10.5829C9.69167 9.80972 10.4098 9.05391 11.1539 8.32248C12.4757 7.02321 13.8615 5.7956 15.2841 4.61044C15.7685 4.20687 16.2568 3.80789 16.7458 3.40995C16.8247 3.34577 17.0198 3.13941 16.9984 3.23931C16.9826 3.31286 16.9241 3.40878 16.8935 3.46162C16.6391 3.90155 16.3542 4.32331 16.0954 4.76066C14.9881 6.63159 14.0089 8.58382 13.1219 10.5697C12.1682 12.7051 11.2897 14.8765 10.4177 17.0468C9.7765 18.6427 9.12589 20.2401 8.5807 21.8728C8.56584 21.9173 8.15349 22.962 8.30432 23" stroke="white" stroke-width="3" stroke-linecap="round"/>
</svg>
